# xmcd
#
# Track frame offsets: 
#        150
#        14068
#        25853
#        42473
#        60705
#        74760
#        86431
#        100618
#        115522
#        134369
#        146243
#        163582
#        178286
#        182076
#        199740
#
# Disc length: 2878 seconds
#
# Revision: 0
# Processed by: cddbd v1.5.2PL0 Copyright (c) Steve Scherf et al.
# Submitted via: ExactAudioCopy v1.2
#
DISCID=db0b3c0f
DTITLE=Eric Bibb - Migration Blues
DYEAR=2017
DGENRE=Blues
TTITLE0=Refugee Moan
TTITLE1=Delta Getaway
TTITLE2=Diego's Blues
TTITLE3=Prayin' for Shore
TTITLE4=Migration Blues
TTITLE5=Four Years, No Rain
TTITLE6=We Had to Move
TTITLE7=Masters of War
TTITLE8=Brotherly Love
TTITLE9=La Vie C'est Comme Un Oignon
TTITLE10=With a Dolla' in My Pocket
TTITLE11=This Land Is Your Land
TTITLE12=Postcard From Booker
TTITLE13=Blacktop
TTITLE14=Mornin' Train
EXTD=
EXTT0=
EXTT1=
EXTT2=
EXTT3=
EXTT4=
EXTT5=
EXTT6=
EXTT7=
EXTT8=
EXTT9=
EXTT10=
EXTT11=
EXTT12=
EXTT13=
EXTT14=
PLAYORDER=
